<svg width="109" height="22" viewBox="0 0 109 22" fill="none" xmlns="http://www.w3.org/2000/svg">
<g clip-path="url(#clip0_2022_4)">
<path d="M9.77 21.73C10.39 21.43 12.66 20.15 15.37 16.99C15.3 16.99 15.23 16.99 15.16 16.99C14.67 16.99 14.16 16.96 13.64 16.9C12.88 16.81 12.14 16.67 11.43 16.48C10.79 16.31 10.17 16.11 9.57 15.88V21.76C9.64 21.76 9.7 21.76 9.76 21.73H9.77Z" fill="#0D2646"/>
<path d="M18.63 2.13C18.62 1.9 18.41 1.74 18.18 1.78C18.06 1.8 17.93 1.82 17.81 1.84C17.07 1.96 16.32 2.02 15.57 2.01C15.38 2.01 15.2 2.01 15.01 1.99C15.2 2.13 15.39 2.28 15.58 2.43C16.61 3.26 17.55 4.15 18.35 5.07C18.46 5.2 18.57 5.32 18.68 5.45C18.71 3.95 18.66 2.74 18.62 2.12L18.63 2.13Z" fill="#0D2646"/>
<path d="M16.47 4.26C16.04 3.84 15.57 3.43 15.08 3.03C14.58 2.64 14.07 2.26 13.55 1.92C13.47 1.87 13.39 1.81 13.3 1.76C12.92 1.67 12.55 1.56 12.18 1.43C11.78 1.28 11.39 1.11 11.02 0.91C10.74 0.76 10.46 0.58 10.2 0.39C10.1 0.32 10.01 0.25 9.92 0.17C9.83 0.1 9.75 0.01 9.62 0C9.6 0 9.59 0 9.57 0V14C10.36 14.37 11.16 14.67 11.97 14.91C13.24 15.29 14.45 15.48 15.56 15.48C15.65 15.48 15.74 15.48 15.83 15.48C16.09 15.48 16.34 15.45 16.59 15.42C17.99 13.16 18.49 9.7 18.65 6.82C18.37 6.41 18.06 6 17.72 5.6C17.31 5.11 16.9 4.68 16.48 4.27L16.47 4.26Z" fill="#154372"/>
<path d="M7.39 14.9L7.16 14.78L6.93 14.65C6.93 14.65 6.84 14.6 6.79 14.57C6.68 14.51 6.57 14.45 6.47 14.38L6.02 14.11L5.59 13.83C5 13.44 4.44 13.03 3.92 12.62C3.39 12.18 2.88 11.73 2.4 11.27C2.29 11.16 2.18 11.05 2.05 10.91L1.72 10.55C1.64 10.46 1.56 10.37 1.48 10.28C1.45 10.24 1.42 10.21 1.38 10.17L1.22 9.99001L1.07 9.80001C0.989996 9.70001 0.919996 9.61001 0.839996 9.51001C1.16 11.97 1.82 14.45 3.1 16.05C6.16 19.88 8.81 21.41 9.49 21.74C9.53 21.76 9.58 21.77 9.63 21.78V15.9C9.55 15.87 9.47 15.84 9.4 15.81C8.72 15.54 8.06 15.24 7.44 14.91L7.39 14.9Z" fill="#154372"/>
<path d="M9.33 0.13C9.18 0.25 9.03 0.37 8.87 0.48C8.59 0.67 8.3 0.85 7.99 1C7.6 1.2 7.19 1.37 6.77 1.51C6.26 1.68 5.74 1.8 5.21 1.89C4.58 1.99 3.93 2.03 3.29 2.02C2.53 2.01 1.76 1.92 1.01 1.78C0.789997 1.74 0.579997 1.9 0.559997 2.13C0.539997 2.74 0.479997 3.96 0.499997 5.46C0.559997 5.59 0.609997 5.72 0.679997 5.85C1.15 6.83 1.8 7.81 2.6 8.75C3.01 9.23 3.42 9.67 3.84 10.07C4.27 10.49 4.74 10.9 5.23 11.29C5.73 11.69 6.24 12.07 6.75 12.41C7.25 12.75 7.79 13.07 8.38 13.4C8.77 13.61 9.17 13.81 9.57 14V0C9.48 0.01 9.39 0.07 9.32 0.13H9.33Z" fill="#0D2646"/>
<path d="M24.52 18.29L26.99 15.35C28.88 16.98 31.03 17.97 33.56 17.97C35.71 17.97 36.82 16.98 36.82 15.73C36.82 14.3 35.66 13.87 32.6 13.17C28.38 12.21 25.39 11.02 25.39 7.15002C25.39 3.28002 28.42 0.930023 32.78 0.930023C36.04 0.930023 38.57 1.95002 40.6 3.69002L38.36 6.77002C36.59 5.34002 34.58 4.56002 32.66 4.56002C30.74 4.56002 29.72 5.52002 29.72 6.71002C29.72 8.16002 30.91 8.63002 34 9.33002C38.3 10.29 41.15 11.57 41.15 15.26C41.15 18.95 38.27 21.6 33.38 21.6C29.92 21.6 26.84 20.44 24.51 18.28L24.52 18.29Z" fill="#0D2646"/>
<path d="M43.45 11.25C43.45 5.64001 48.34 0.920013 54.07 0.920013C59.8 0.920013 64.69 5.63001 64.69 11.25C64.69 16.87 59.86 21.6 54.07 21.6C48.28 21.6 43.45 16.86 43.45 11.25ZM60.29 11.25C60.29 7.79001 57.44 4.82001 54.07 4.82001C50.7 4.82001 47.87 7.79001 47.87 11.25C47.87 14.71 50.72 17.71 54.07 17.71C57.42 17.71 60.29 14.74 60.29 11.25Z" fill="#0D2646"/>
<path d="M81.96 17.39V21.26H67.71V1.28H72.01V17.39H81.96Z" fill="#0D2646"/>
<path d="M84.78 1.28H89.08V21.26H84.78V1.28Z" fill="#0D2646"/>
<path d="M98.25 5.15H92.03V1.28H108.78V5.15H102.56V21.26H98.26V5.15H98.25Z" fill="#0D2646"/>
</g>
<defs>
<clipPath id="clip0_2022_4">
<rect width="108.28" height="21.76" fill="white" transform="translate(0.5)"/>
</clipPath>
</defs>
</svg>
