<svg width="19" height="23" viewBox="0 0 19 23" fill="none" xmlns="http://www.w3.org/2000/svg">
<path d="M9.45085 22.5871C10.0708 22.2871 12.3408 21.0071 15.0508 17.8471C14.9808 17.8471 14.9108 17.8471 14.8408 17.8471C14.3508 17.8471 13.8408 17.8171 13.3208 17.7571C12.5608 17.6671 11.8208 17.5271 11.1108 17.3371C10.4708 17.1671 9.85085 16.9671 9.25085 16.7371V22.6171C9.32085 22.6171 9.38085 22.6171 9.44085 22.5871H9.45085Z" fill="#0D2646"/>
<path d="M18.3108 2.98712C18.3008 2.75712 18.0908 2.59712 17.8608 2.63712C17.7408 2.65712 17.6108 2.67712 17.4908 2.69712C16.7508 2.81712 16.0008 2.87712 15.2508 2.86712C15.0608 2.86712 14.8808 2.86712 14.6908 2.84712C14.8808 2.98712 15.0708 3.13712 15.2608 3.28712C16.2908 4.11712 17.2308 5.00712 18.0308 5.92712C18.1408 6.05712 18.2508 6.17712 18.3608 6.30712C18.3908 4.80712 18.3408 3.59712 18.3008 2.97712L18.3108 2.98712Z" fill="#0D2646"/>
<path d="M16.1508 5.11712C15.7208 4.69712 15.2508 4.28712 14.7608 3.88712C14.2608 3.49712 13.7508 3.11712 13.2308 2.77712C13.1508 2.72712 13.0708 2.66712 12.9808 2.61712C12.6008 2.52712 12.2308 2.41712 11.8608 2.28712C11.4608 2.13712 11.0708 1.96712 10.7008 1.76712C10.4208 1.61712 10.1408 1.43712 9.88085 1.24712C9.78085 1.17712 9.69085 1.10712 9.60085 1.02712C9.51085 0.957117 9.43085 0.867117 9.30085 0.857117C9.28085 0.857117 9.27085 0.857117 9.25085 0.857117V14.8571C10.0408 15.2271 10.8408 15.5271 11.6508 15.7671C12.9208 16.1471 14.1308 16.3371 15.2408 16.3371C15.3308 16.3371 15.4208 16.3371 15.5108 16.3371C15.7708 16.3371 16.0208 16.3071 16.2708 16.2771C17.6708 14.0171 18.1708 10.5571 18.3308 7.67712C18.0508 7.26712 17.7408 6.85712 17.4008 6.45712C16.9908 5.96712 16.5808 5.53712 16.1608 5.12712L16.1508 5.11712Z" fill="#154372"/>
<path d="M7.07084 15.7571L6.84084 15.6371L6.61084 15.5071C6.61084 15.5071 6.52084 15.4571 6.47084 15.4271C6.36084 15.3671 6.25084 15.3071 6.15084 15.2371L5.70084 14.9671L5.27084 14.6871C4.68084 14.2971 4.12084 13.8871 3.60084 13.4771C3.07084 13.0371 2.56084 12.5871 2.08084 12.1271C1.97084 12.0171 1.86084 11.9071 1.73084 11.7671L1.40084 11.4071C1.32084 11.3171 1.24084 11.2271 1.16084 11.1371C1.13084 11.0971 1.10084 11.0671 1.06084 11.0271L0.900844 10.8471L0.750843 10.6571C0.670843 10.5571 0.600844 10.4671 0.520844 10.3671C0.840843 12.8271 1.50084 15.3071 2.78084 16.9071C5.84084 20.7371 8.49084 22.2671 9.17084 22.5971C9.21084 22.6171 9.26084 22.6271 9.31084 22.6371V16.7571C9.23084 16.7271 9.15084 16.6971 9.08084 16.6671C8.40084 16.3971 7.74084 16.0971 7.12084 15.7671L7.07084 15.7571Z" fill="#154372"/>
<path d="M9.01084 0.987117C8.86084 1.10712 8.71084 1.22712 8.55084 1.33712C8.27084 1.52712 7.98084 1.70712 7.67084 1.85712C7.28084 2.05712 6.87084 2.22712 6.45084 2.36712C5.94084 2.53712 5.42084 2.65712 4.89084 2.74712C4.26084 2.84712 3.61084 2.88712 2.97084 2.87712C2.21084 2.86712 1.44084 2.77712 0.690844 2.63712C0.470844 2.59712 0.260844 2.75712 0.240844 2.98712C0.220844 3.59712 0.160844 4.81712 0.180844 6.31712C0.240844 6.44712 0.290844 6.57712 0.360844 6.70712C0.830844 7.68712 1.48084 8.66712 2.28084 9.60712C2.69084 10.0871 3.10084 10.5271 3.52084 10.9271C3.95084 11.3471 4.42084 11.7571 4.91084 12.1471C5.41084 12.5471 5.92084 12.9271 6.43084 13.2671C6.93084 13.6071 7.47084 13.9271 8.06084 14.2571C8.45084 14.4671 8.85084 14.6671 9.25084 14.8571V0.857117C9.16084 0.867117 9.07084 0.927117 9.00084 0.987117H9.01084Z" fill="#0D2646"/>
</svg>
